<?xml version="1.0" ?>
<svg height="1000" viewBox="0 0 800 1000" width="800" xmlns="http://www.w3.org/2000/svg">
  <path d="M740.8,635.42c-68.27,90.47 -249.77,201.76 -316,240.63a50.7,50.7 0,0 1,-49.93 0.81c-64.19,-35 -234.09,-133.88 -315.65,-242a14.69,14.69 0,0 1,-0.12 -17.49c77.58,-106.29 159.67,-258.89 341.06,-258.89 182,0 242.19,139.08 340.27,258.88A14.62,14.62 0,0 1,740.8 635.42Z" fill="#eee" fill-opacity="0.5" stroke-opacity="0.5"/>
  <path d="M704.9,630l-294.29,191.06l0,-340.85l294.29,-191.06l0,340.85z" fill="#bdbdbd"/>
  <path d="M97.59,630l294.29,191.06l0,-340.85l-294.29,-191.06l0,340.85z" fill="#e0e0e0"/>
  <path d="M400.14,464.73l-293.19,-191.45l293.19,-156.31l295.39,156.31l-295.39,191.45z" fill="#f5f5f5"/>
  <path d="M106.95,273.28l-9.36,15.87l294.29,191.06l8.26,-15.48l-293.19,-191.45z" fill="#eee"/>
  <path d="M695.53,273.28l9.37,15.87l-294.29,191.06l-10.47,-15.48l295.39,-191.45z" fill="#e0e0e0"/>
  <path d="M391.88,480.21h18.73v340.85h-18.73z" fill="#eee"/>
  <path d="M400.14,464.73l-8.26,15.48l18.73,0l-10.47,-15.48z" fill="#f5f5f5"/>
  <path d="M326.53,254.89a16.9,28.71 97.07,1 0,4.16 -33.54a16.9,28.71 97.07,1 0,-4.16 33.54z" fill="#78c257"/>
  <path d="M537.57,298.78a16.9,28.71 97.07,1 0,4.16 -33.54a16.9,28.71 97.07,1 0,-4.16 33.54z" fill="#78c257"/>
  <path d="M397.17,213.3a16.9,28.71 97.07,1 0,4.16 -33.54a16.9,28.71 97.07,1 0,-4.16 33.54z" fill="#78c257"/>
  <path d="M396.31,381.95a16.9,28.71 97.07,1 0,4.16 -33.54a16.9,28.71 97.07,1 0,-4.16 33.54z" fill="#78c257"/>
  <path d="M255.91,296.47a16.9,28.71 97.07,1 0,4.16 -33.54a16.9,28.71 97.07,1 0,-4.16 33.54z" fill="#78c257"/>
  <path d="M466.93,340.37a16.9,28.71 97.07,1 0,4.16 -33.54a16.9,28.71 97.07,1 0,-4.16 33.54z" fill="#78c257"/>
  <path d="M230,563.64a30.12,16.11 53.82,1 0,26.01 -19.02a30.12,16.11 53.82,1 0,-26.01 19.02z" fill="#78c257"/>
  <path d="M312.02,533.78a30.12,16.11 53.82,1 0,26.01 -19.02a30.12,16.11 53.82,1 0,-26.01 19.02z" fill="#78c257"/>
  <path d="M147.96,593.48a30.12,16.11 53.82,1 0,26.01 -19.02a30.12,16.11 53.82,1 0,-26.01 19.02z" fill="#78c257"/>
  <path d="M483.54,554.83a30.12,16.11 126.18,1 0,35.56 -48.62a30.12,16.11 126.18,1 0,-35.56 48.62z" fill="#78c257"/>
  <path d="M618.75,604.04a30.12,16.11 126.18,1 0,35.56 -48.62a30.12,16.11 126.18,1 0,-35.56 48.62z" fill="#78c257"/>
</svg>
